<?xml version="1.0" encoding="utf-8"?>
<!-- Generator: Adobe Illustrator 26.3.1, SVG Export Plug-In . SVG Version: 6.00 Build 0)  -->
<svg version="1.1" id="icon_navigation_close_24px_"
	 xmlns="http://www.w3.org/2000/svg" xmlns:xlink="http://www.w3.org/1999/xlink" x="0px" y="0px" viewBox="0 0 24 24"
	 style="enable-background:new 0 0 24 24;" xml:space="preserve">
<style type="text/css">
	.st0{fill:none;}
	.st1{fill:#FFFFFF;}
</style>
<rect id="Boundary" class="st0" width="24" height="24"/>
<path id="_Color" class="st1" d="M12,22C6.5,22,2,17.5,2,12C2,9.4,3,6.8,4.9,4.9C8.8,1,15.2,1,19.1,4.9s3.9,10.2,0,14.1
	C17.2,21,14.7,22,12,22z M12,13.4L12,13.4l3.6,3.6l1.4-1.4L13.4,12L17,8.4L15.6,7L12,10.6L8.4,7L7,8.4l3.6,3.6L7,15.6L8.4,17
	L12,13.4L12,13.4z"/>
</svg>
