<svg xmlns="http://www.w3.org/2000/svg" xmlns:xlink="http://www.w3.org/1999/xlink" width="49.097" height="72.25" viewBox="0 0 49.097 72.25">
  <defs>
    <clipPath id="clip-path">
      <rect id="Rectángulo_131" data-name="Rectángulo 131" width="42.198" height="68.213" fill="none"/>
    </clipPath>
  </defs>
  <g id="Artwork_4" data-name="Artwork 4" transform="matrix(0.995, -0.105, 0.105, 0.995, 24.549, 36.125)">
    <g id="Grupo_188" data-name="Grupo 188" transform="translate(-21.099 -34.107)" clip-path="url(#clip-path)">
      <path id="Trazado_462" data-name="Trazado 462" d="M38.132,40.151a4.3,4.3,0,0,0-3.045,1.305,4.459,4.459,0,0,0-3.861-2.393,4.35,4.35,0,0,0-3.154,1.414,4.4,4.4,0,0,0-3.752-2.23,4.242,4.242,0,0,0-2.447.816V27.535a4.748,4.748,0,0,0-4.459-4.84,4.3,4.3,0,0,0-3.263,1.251,5.112,5.112,0,0,0-1.523,3.643V52.495L9.964,48.96a5.764,5.764,0,0,0-7.015-1.74A3.535,3.535,0,0,0,1.1,49.232a3.861,3.861,0,0,0,.109,2.936h.054L13.825,75.008a6.58,6.58,0,0,0,5.71,3.48H34.38A6.09,6.09,0,0,0,40.2,73.431a121.592,121.592,0,0,0,2.338-23.818V44.936a4.627,4.627,0,0,0-4.459-4.785m2.447,9.516A119.579,119.579,0,0,1,38.186,73.1a4.078,4.078,0,0,1-3.861,3.426H19.48a4.568,4.568,0,0,1-3.915-2.447L3,51.3a1.849,1.849,0,0,1-.054-1.359,1.523,1.523,0,0,1,.761-.87,3.807,3.807,0,0,1,4.622,1.2L12.9,56.029a.979.979,0,0,0,1.795-.653V27.643a3.1,3.1,0,0,1,.924-2.23,2.338,2.338,0,0,1,1.631-.707h0a2.72,2.72,0,0,1,2.5,2.828v21.1a1.006,1.006,0,1,0,2.012,0v-5.6a2.626,2.626,0,0,1,2.447-2.773,2.665,2.665,0,0,1,2.447,2.773V49.5a1.006,1.006,0,0,0,2.012,0c0-.435,0-5.547,0-6.036a2.61,2.61,0,0,1,2.447-2.447,2.626,2.626,0,0,1,2.447,2.773v6.852a1.006,1.006,0,1,0,2.012,0v-5.71a2.466,2.466,0,1,1,4.894,0Z" transform="translate(-0.393 -10.351)" fill="#fff"/>
      <path id="Trazado_463" data-name="Trazado 463" d="M8.11,31.187l.489.163A.979.979,0,0,0,9.143,29.5a14.827,14.827,0,1,1,20.827-6.09,1.009,1.009,0,0,0,1.795.924,16.64,16.64,0,0,0,1.74-7.5A16.8,16.8,0,1,0,8.11,31.187" transform="translate(0.047 0.026)" fill="#fff"/>
      <path id="Trazado_464" data-name="Trazado 464" d="M29.828,27.645l.489.109a.979.979,0,0,0,.87-.489,10.332,10.332,0,1,0-18.163-.326,1.009,1.009,0,1,0,1.795-.924,8.211,8.211,0,0,1-.924-3.807,8.32,8.32,0,1,1,15.552,4.078.979.979,0,0,0,.381,1.359" transform="translate(-5.411 -5.404)" fill="#fff"/>
    </g>
  </g>
</svg>
