<svg xmlns="http://www.w3.org/2000/svg" width="16.881" height="16.398" viewBox="0 0 16.881 16.398">
  <g id="Grupo_16" data-name="Grupo 16" transform="translate(-226.5 -651)">
    <g id="Grupo_9" data-name="Grupo 9" transform="translate(228.737 660.193)">
      <circle id="Elipse_3" data-name="Elipse 3" cx="2.237" cy="2.237" r="2.237" transform="translate(0 2.604)" fill="#8b0305"/>
      <path id="Trazado_20" data-name="Trazado 20" d="M8127.678,1449.33c-.181,2.2-4.01,2.967-4.118.163a7.24,7.24,0,0,1,2.007-4.894S8127.859,1447.133,8127.678,1449.33Z" transform="translate(-8123.331 -1444.599)" fill="#8b0305" stroke="#8b0305" stroke-width="1"/>
    </g>
    <line id="Línea_1" data-name="Línea 1" x1="2.034" transform="translate(226.5 665.034)" fill="none" stroke="#8b0305" stroke-width="2"/>
    <line id="Línea_2" data-name="Línea 2" x2="9.356" transform="translate(233.822 665.034)" fill="none" stroke="#8b0305" stroke-width="2"/>
    <g id="Rectángulo_32" data-name="Rectángulo 32" transform="translate(227.11 656.695)" fill="#d6a5a6" stroke="#d5a5a6" stroke-width="1">
      <rect width="2.034" height="2.847" stroke="none"/>
      <rect x="0.5" y="0.5" width="1.034" height="1.847" fill="none"/>
    </g>
    <g id="Rectángulo_33" data-name="Rectángulo 33" transform="translate(229.958 655.475)" fill="#d0999a" stroke="#d0999a" stroke-width="1">
      <rect width="2.034" height="4.068" stroke="none"/>
      <rect x="0.5" y="0.5" width="1.034" height="3.068" fill="none"/>
    </g>
    <g id="Rectángulo_34" data-name="Rectángulo 34" transform="translate(232.805 654.254)" fill="#b66263" stroke="#b86566" stroke-width="1">
      <rect width="2.034" height="5.288" stroke="none"/>
      <rect x="0.5" y="0.5" width="1.034" height="4.288" fill="none"/>
    </g>
    <g id="Rectángulo_35" data-name="Rectángulo 35" transform="translate(235.652 653.034)" fill="#9d2b2d" stroke="#a13234" stroke-width="1">
      <rect width="2.034" height="6.508" stroke="none"/>
      <rect x="0.5" y="0.5" width="1.034" height="5.508" fill="none"/>
    </g>
    <g id="Rectángulo_36" data-name="Rectángulo 36" transform="translate(238.5 651.814)" fill="#870000" stroke="#890002" stroke-width="1">
      <rect width="2.034" height="7.729" stroke="none"/>
      <rect x="0.5" y="0.5" width="1.034" height="6.729" fill="none"/>
    </g>
    <g id="Rectángulo_37" data-name="Rectángulo 37" transform="translate(241.347 651)" fill="#670103" stroke="#5e0000" stroke-width="1">
      <rect width="2.034" height="8.542" stroke="none"/>
      <rect x="0.5" y="0.5" width="1.034" height="7.542" fill="none"/>
    </g>
  </g>
</svg>
