<svg id="Vector" xmlns="http://www.w3.org/2000/svg" width="12.002" height="9.502" viewBox="0 0 12.002 9.502">
  <path id="Vector-2" data-name="Vector" d="M11.252,4.073h-8.9L5.078,1.114a.637.637,0,0,0,.17-.5.662.662,0,0,0-.268-.46A.806.806,0,0,0,4.432,0a.778.778,0,0,0-.509.242L.173,4.317a.8.8,0,0,0-.068.1c0,.034,0,.054-.053.088A.595.595,0,0,0,.053,5c0,.034,0,.054.053.088a.8.8,0,0,0,.068.1L3.923,9.257a.746.746,0,0,0,.259.18A.817.817,0,0,0,4.5,9.5a.8.8,0,0,0,.48-.156.7.7,0,0,0,.185-.206.632.632,0,0,0,.083-.254.617.617,0,0,0-.031-.264.662.662,0,0,0-.14-.233L2.355,5.43h8.9a.792.792,0,0,0,.53-.2.634.634,0,0,0,0-.96A.792.792,0,0,0,11.252,4.073Z" transform="translate(0 0)" fill="#ac1a2f"/>
</svg>
