<svg xmlns="http://www.w3.org/2000/svg" width="19.495" height="19.49" viewBox="0 0 19.495 19.49">
  <g id="instagram-brands_2_" data-name="instagram-brands (2)" transform="translate(0)">
    <path id="instagram-brands_2_2" data-name="instagram-brands (2)" d="M9.675,36.573a5,5,0,1,0,5,5A4.989,4.989,0,0,0,9.675,36.573Zm0,8.246a3.249,3.249,0,1,1,3.249-3.249A3.255,3.255,0,0,1,9.675,44.819Zm6.367-8.45A1.166,1.166,0,1,1,14.876,35.2,1.163,1.163,0,0,1,16.042,36.369Zm3.31,1.183a5.768,5.768,0,0,0-1.574-4.084,5.806,5.806,0,0,0-4.084-1.574c-1.609-.091-6.432-.091-8.041,0a5.8,5.8,0,0,0-4.084,1.57A5.787,5.787,0,0,0-.006,37.547c-.091,1.609-.091,6.432,0,8.041a5.768,5.768,0,0,0,1.574,4.084,5.813,5.813,0,0,0,4.084,1.574c1.609.091,6.432.091,8.041,0a5.768,5.768,0,0,0,4.084-1.574,5.806,5.806,0,0,0,1.574-4.084c.091-1.609.091-6.428,0-8.037Zm-2.079,9.764a3.289,3.289,0,0,1-1.853,1.853c-1.283.509-4.327.391-5.745.391s-4.467.113-5.745-.391a3.289,3.289,0,0,1-1.853-1.853c-.509-1.283-.391-4.327-.391-5.745s-.113-4.467.391-5.745a3.289,3.289,0,0,1,1.853-1.853c1.283-.509,4.327-.391,5.745-.391s4.467-.113,5.745.391a3.289,3.289,0,0,1,1.853,1.853c.509,1.283.391,4.327.391,5.745S17.781,46.037,17.272,47.315Z" transform="translate(0.075 -31.825)" fill="#fefefe"/>
  </g>
</svg>
