<svg id="youtube-brands_1_" data-name="youtube-brands (1)" xmlns="http://www.w3.org/2000/svg" width="27.012" height="18.993" viewBox="0 0 27.012 18.993">
  <path id="youtube-brands_1_2" data-name="youtube-brands (1)" d="M41.38,66.972a3.394,3.394,0,0,0-2.388-2.4C36.886,64,28.439,64,28.439,64s-8.447,0-10.553.568a3.394,3.394,0,0,0-2.388,2.4,38.215,38.215,0,0,0,0,13.088,3.344,3.344,0,0,0,2.388,2.365c2.107.568,10.553.568,10.553.568s8.447,0,10.553-.568a3.344,3.344,0,0,0,2.388-2.365,38.215,38.215,0,0,0,0-13.088Zm-15.7,10.56V69.5l7.06,4.016Z" transform="translate(-14.933 -64)" fill="#fefefe"/>
</svg>
